# xmcd
#
# Track frame offsets:
#	150
#	13895
#	29102
#	40532
#	55264
#	72462
#	89900
#	101485
#	115960
#	131382
#
# Disc length: 1886 seconds
# Revision: 0
# Processed by: cddbd v1.5.2PL0 Copyright (c) Steve Scherf et al.
# Submitted via: dBpowerAMP V12.0
#
DISCID=8e075c0a
DTITLE=Billy Walker - Merry Christmas With Love
DYEAR=1996
DGENRE=Christmas
TTITLE0=Blue Christmas
TTITLE1=And The Angels Sing
TTITLE2=Rudolph The Rednosed Reindeer
TTITLE3=White Christmas
TTITLE4=Silentnight
TTITLE5=O' Come All Ye Faithful
TTITLE6=Winter Wonderland
TTITLE7=O' Little Town Of Bethlehem
TTITLE8=Have Yourself A Merry Little Christmas
TTITLE9=Here Comes Santa Claus
EXTD=
EXTT0=
EXTT1=
EXTT2=
EXTT3=
EXTT4=
EXTT5=
EXTT6=
EXTT7=
EXTT8=
EXTT9=
PLAYORDER=
